<svg width="35" height="35" viewBox="0 0 35 35" fill="none" xmlns="http://www.w3.org/2000/svg">
<path d="M29.5312 2.1875H5.46875C4.59851 2.1875 3.76391 2.5332 3.14856 3.14856C2.5332 3.76391 2.1875 4.59851 2.1875 5.46875L2.1875 29.5312C2.1875 30.4015 2.5332 31.2361 3.14856 31.8514C3.76391 32.4668 4.59851 32.8125 5.46875 32.8125H14.8511V22.4007H10.5444V17.5H14.8511V13.7648C14.8511 9.51631 17.3804 7.16953 21.2543 7.16953C23.1096 7.16953 25.0496 7.50039 25.0496 7.50039V11.6703H22.912C20.8059 11.6703 20.1489 12.9773 20.1489 14.3179V17.5H24.8507L24.0987 22.4007H20.1489V32.8125H29.5312C30.4015 32.8125 31.2361 32.4668 31.8514 31.8514C32.4668 31.2361 32.8125 30.4015 32.8125 29.5312V5.46875C32.8125 4.59851 32.4668 3.76391 31.8514 3.14856C31.2361 2.5332 30.4015 2.1875 29.5312 2.1875Z" fill="white"/>
</svg>
