<svg width="35" height="35" viewBox="0 0 35 35" fill="none" xmlns="http://www.w3.org/2000/svg">
<path d="M30.625 2.1875H4.36816C3.16504 2.1875 2.1875 3.17871 2.1875 4.39551V30.6045C2.1875 31.8213 3.16504 32.8125 4.36816 32.8125H30.625C31.8281 32.8125 32.8125 31.8213 32.8125 30.6045V4.39551C32.8125 3.17871 31.8281 2.1875 30.625 2.1875ZM11.4434 28.4375H6.9043V13.8223H11.4502V28.4375H11.4434ZM9.17383 11.8262C7.71777 11.8262 6.54199 10.6436 6.54199 9.19434C6.54199 7.74512 7.71777 6.5625 9.17383 6.5625C10.623 6.5625 11.8057 7.74512 11.8057 9.19434C11.8057 10.6504 10.6299 11.8262 9.17383 11.8262ZM28.458 28.4375H23.9189V21.3281C23.9189 19.6328 23.8848 17.4521 21.5605 17.4521C19.1953 17.4521 18.833 19.2979 18.833 21.2051V28.4375H14.2939V13.8223H18.6484V15.8184H18.71C19.3184 14.6699 20.8018 13.46 23.0098 13.46C27.6035 13.46 28.458 16.4883 28.458 20.4258V28.4375Z" fill="white"/>
</svg>
