<svg width="23" height="21" viewBox="0 0 23 21" fill="none" xmlns="http://www.w3.org/2000/svg">
<path d="M0.8125 3.77624H21.9375C22.3863 3.77624 22.75 3.4125 22.75 2.96375V0.932495C22.75 0.483741 22.3863 0.119995 21.9375 0.119995H0.8125C0.363746 0.119995 0 0.483741 0 0.932495V2.96375C0 3.4125 0.363746 3.77624 0.8125 3.77624ZM0.8125 11.9012H21.9375C22.3863 11.9012 22.75 11.5375 22.75 11.0887V9.0575C22.75 8.60874 22.3863 8.245 21.9375 8.245H0.8125C0.363746 8.245 0 8.60874 0 9.0575V11.0887C0 11.5375 0.363746 11.9012 0.8125 11.9012ZM0.8125 20.0262H21.9375C22.3863 20.0262 22.75 19.6625 22.75 19.2137V17.1825C22.75 16.7337 22.3863 16.37 21.9375 16.37H0.8125C0.363746 16.37 0 16.7337 0 17.1825V19.2137C0 19.6625 0.363746 20.0262 0.8125 20.0262Z" fill="white"/>
</svg>
