<svg width="35" height="35" viewBox="0 0 35 35" fill="none" xmlns="http://www.w3.org/2000/svg">
<path d="M29.5312 2.1875H5.46875C3.65723 2.1875 2.1875 3.65723 2.1875 5.46875V29.5312C2.1875 31.3428 3.65723 32.8125 5.46875 32.8125H29.5312C31.3428 32.8125 32.8125 31.3428 32.8125 29.5312V5.46875C32.8125 3.65723 31.3428 2.1875 29.5312 2.1875ZM26.1885 13.043C26.2021 13.2344 26.2021 13.4326 26.2021 13.624C26.2021 19.5508 21.6904 26.3799 13.4463 26.3799C10.9033 26.3799 8.54492 25.6416 6.5625 24.3701C6.9248 24.4111 7.27344 24.4248 7.64258 24.4248C9.74121 24.4248 11.6689 23.7139 13.207 22.5107C11.2383 22.4697 9.58398 21.1777 9.0166 19.4004C9.70703 19.5029 10.3291 19.5029 11.04 19.3184C8.98926 18.9014 7.45117 17.0967 7.45117 14.916V14.8613C8.0459 15.1963 8.74316 15.4014 9.47461 15.4287C8.85967 15.0197 8.35555 14.4648 8.00726 13.8135C7.65896 13.1622 7.47731 12.4348 7.47852 11.6963C7.47852 10.8623 7.69727 10.0967 8.08691 9.43359C10.2949 12.1543 13.6104 13.9316 17.3291 14.123C16.6934 11.0811 18.9697 8.61328 21.7041 8.61328C22.9961 8.61328 24.1582 9.15332 24.9785 10.0283C25.9902 9.83691 26.9609 9.46094 27.8223 8.94824C27.4873 9.9873 26.7832 10.8623 25.8535 11.416C26.7559 11.3203 27.6309 11.0674 28.4375 10.7188C27.8291 11.6143 27.0635 12.4072 26.1885 13.043Z" fill="white"/>
</svg>
